<svg width="18" height="18" viewBox="0 0 18 18" fill="none" xmlns="http://www.w3.org/2000/svg">
<path d="M12.75 13.8228H9.75L6.41249 16.0428C5.91749 16.3728 5.25 16.0203 5.25 15.4203V13.8228C3 13.8228 1.5 12.3228 1.5 10.0728V5.57275C1.5 3.32275 3 1.82275 5.25 1.82275H12.75C15 1.82275 16.5 3.32275 16.5 5.57275V10.0728C16.5 12.3228 15 13.8228 12.75 13.8228Z" stroke="#333333" stroke-miterlimit="10" stroke-linecap="round" stroke-linejoin="round"/>
<path d="M8.99986 8.52002V8.36255C8.99986 7.85255 9.31488 7.58254 9.62988 7.36504C9.93738 7.15504 10.2448 6.88505 10.2448 6.39005C10.2448 5.70005 9.68986 5.14502 8.99986 5.14502C8.30986 5.14502 7.75488 5.70005 7.75488 6.39005" stroke="#333333" stroke-linecap="round" stroke-linejoin="round"/>
<path d="M8.99662 10.3125H9.00337" stroke="#333333" stroke-linecap="round" stroke-linejoin="round"/>
</svg>
