<svg width="21" height="21" viewBox="0 0 21 21" fill="none" xmlns="http://www.w3.org/2000/svg">
<path d="M6.99805 1.74951V4.37451" stroke="#F8F7F2" stroke-width="1.5" stroke-miterlimit="10" stroke-linecap="round" stroke-linejoin="round"/>
<path d="M14.002 1.74951V4.37451" stroke="#F8F7F2" stroke-width="1.5" stroke-miterlimit="10" stroke-linecap="round" stroke-linejoin="round"/>
<path d="M3.06055 7.95312H17.9355" stroke="#F8F7F2" stroke-width="1.5" stroke-miterlimit="10" stroke-linecap="round" stroke-linejoin="round"/>
<path d="M16.8057 13.7983L13.7082 16.8958C13.5857 17.0183 13.472 17.2458 13.4457 17.412L13.2795 18.5933C13.2182 19.022 13.5157 19.3195 13.9445 19.2583L15.1257 19.092C15.292 19.0658 15.5282 18.952 15.642 18.8295L18.7395 15.732C19.2732 15.1983 19.527 14.577 18.7395 13.7895C17.9607 13.0108 17.3395 13.2645 16.8057 13.7983Z" stroke="#F8F7F2" stroke-width="1.5" stroke-miterlimit="10" stroke-linecap="round" stroke-linejoin="round"/>
<path d="M16.3613 14.2451C16.6238 15.1901 17.3588 15.9251 18.3038 16.1876" stroke="#F8F7F2" stroke-width="1.5" stroke-miterlimit="10" stroke-linecap="round" stroke-linejoin="round"/>
<path d="M10.5 19.2495H7C3.9375 19.2495 2.625 17.4995 2.625 14.8745V7.43701C2.625 4.81201 3.9375 3.06201 7 3.06201H14C17.0625 3.06201 18.375 4.81201 18.375 7.43701V10.4995" stroke="#F8F7F2" stroke-width="1.5" stroke-miterlimit="10" stroke-linecap="round" stroke-linejoin="round"/>
<path d="M10.4971 11.9883H10.505" stroke="#F8F7F2" stroke-width="2" stroke-linecap="round" stroke-linejoin="round"/>
<path d="M7.26082 11.9883H7.26868" stroke="#F8F7F2" stroke-width="2" stroke-linecap="round" stroke-linejoin="round"/>
<path d="M7.26082 14.6133H7.26868" stroke="#F8F7F2" stroke-width="2" stroke-linecap="round" stroke-linejoin="round"/>
</svg>
