<svg width="27" height="27" viewBox="0 0 27 27" fill="none" xmlns="http://www.w3.org/2000/svg">
<path d="M7.60519 24.75H19.3952C22.5002 24.75 23.7377 22.8487 23.8839 20.5312L24.4689 11.2387C24.6264 8.80875 22.6914 6.75 20.2502 6.75C19.5639 6.75 18.9339 6.35625 18.6189 5.74875L17.8089 4.1175C17.2914 3.09375 15.9414 2.25 14.7939 2.25H12.2177C11.0589 2.25 9.70894 3.09375 9.19144 4.1175L8.38144 5.74875C8.06644 6.35625 7.43644 6.75 6.75019 6.75C4.30894 6.75 2.37394 8.80875 2.53144 11.2387L3.11644 20.5312C3.25144 22.8487 4.50019 24.75 7.60519 24.75Z" stroke="#333333" stroke-width="1.875" stroke-linecap="round" stroke-linejoin="round"/>
<path d="M11.8125 9H15.1875" stroke="#333333" stroke-width="1.875" stroke-linecap="round" stroke-linejoin="round"/>
<path d="M13.5 20.25C15.5137 20.25 17.1562 18.6075 17.1562 16.5938C17.1562 14.58 15.5137 12.9375 13.5 12.9375C11.4863 12.9375 9.84375 14.58 9.84375 16.5938C9.84375 18.6075 11.4863 20.25 13.5 20.25Z" stroke="#333333" stroke-width="1.875" stroke-linecap="round" stroke-linejoin="round"/>
</svg>
