<svg width="21" height="21" viewBox="0 0 21 21" fill="none" xmlns="http://www.w3.org/2000/svg">
<path d="M9.625 1.75H7.875C3.5 1.75 1.75 3.5 1.75 7.875V13.125C1.75 17.5 3.5 19.25 7.875 19.25H13.125C17.5 19.25 19.25 17.5 19.25 13.125V11.375" stroke="#333333" stroke-width="1.5" stroke-linecap="round" stroke-linejoin="round"/>
<path d="M14.0349 2.64211L7.13989 9.53711C6.87739 9.79961 6.61489 10.3159 6.56239 10.6921L6.18614 13.3259C6.04614 14.2796 6.71989 14.9446 7.67364 14.8134L10.3074 14.4371C10.6749 14.3846 11.1911 14.1221 11.4624 13.8596L18.3574 6.96461C19.5474 5.77461 20.1074 4.39211 18.3574 2.64211C16.6074 0.892111 15.2249 1.45211 14.0349 2.64211Z" stroke="#333333" stroke-width="1.5" stroke-miterlimit="10" stroke-linecap="round" stroke-linejoin="round"/>
<path d="M13.0464 3.63135C13.6326 5.7226 15.2689 7.35885 17.3689 7.95385" stroke="#333333" stroke-width="1.5" stroke-miterlimit="10" stroke-linecap="round" stroke-linejoin="round"/>
</svg>
