<svg width="35" height="35" viewBox="0 0 35 35" fill="none" xmlns="http://www.w3.org/2000/svg">
<path d="M11.949 33.1735L22.3352 19.4188C23.3096 18.1284 25.0816 17.7454 26.5019 18.5184L32.8469 21.9715M1.5 12.124C1.5 3.37514 3.37514 1.5 12.124 1.5H22.876C31.6249 1.5 33.5 3.37514 33.5 12.124V22.876C33.5 31.6249 31.6249 33.5 22.876 33.5H12.124C3.37514 33.5 1.5 31.6249 1.5 22.876V12.124ZM19.1327 12.2755C19.1327 13.5379 18.1093 14.5612 16.8469 14.5612C15.5846 14.5612 14.5612 13.5379 14.5612 12.2755C14.5612 11.0131 15.5846 9.9898 16.8469 9.9898C18.1093 9.9898 19.1327 11.0131 19.1327 12.2755Z" stroke="#A8A8A8" stroke-width="3"/>
</svg>
