<svg width="1512" height="599" viewBox="0 0 1512 599" fill="none" xmlns="http://www.w3.org/2000/svg">
<g filter="url(#filter0_df_1001_437)">
<path d="M301.841 367.979C84.6312 298.51 -8.58794 378.381 -28.0463 427L-124.433 -114.367H1567.09C1610.98 95.0339 1614.87 480.458 1279.28 346.948C859.798 180.061 573.353 454.815 301.841 367.979Z" fill="#599BDD"/>
<path d="M301.841 288.838C84.6312 219.37 -8.58794 299.24 -28.0463 347.859L-124.433 -193.508H1567.09C1610.98 15.8933 1614.87 401.318 1279.28 267.808C859.798 100.92 573.353 375.674 301.841 288.838Z" fill="#2F81D3"/>
<path d="M269.274 191.346C52.0643 121.877 -41.1548 201.748 -60.6132 250.367L-157 -291H1534.52C1578.41 -81.5989 1582.31 303.826 1246.72 170.315C827.231 3.4278 540.786 278.182 269.274 191.346Z" fill="#2230C6"/>
</g>
<defs>
<filter id="filter0_df_1001_437" x="-328.5" y="-462.5" width="2088" height="1061" filterUnits="userSpaceOnUse" color-interpolation-filters="sRGB">
<feFlood flood-opacity="0" result="BackgroundImageFix"/>
<feColorMatrix in="SourceAlpha" type="matrix" values="0 0 0 0 0 0 0 0 0 0 0 0 0 0 0 0 0 0 127 0" result="hardAlpha"/>
<feOffset dy="4"/>
<feGaussianBlur stdDeviation="2"/>
<feComposite in2="hardAlpha" operator="out"/>
<feColorMatrix type="matrix" values="0 0 0 0 0 0 0 0 0 0 0 0 0 0 0 0 0 0 0.25 0"/>
<feBlend mode="normal" in2="BackgroundImageFix" result="effect1_dropShadow_1001_437"/>
<feBlend mode="normal" in="SourceGraphic" in2="effect1_dropShadow_1001_437" result="shape"/>
<feGaussianBlur stdDeviation="85.75" result="effect2_foregroundBlur_1001_437"/>
</filter>
</defs>
</svg>
