<svg width="19" height="20" viewBox="0 0 19 20" fill="none" xmlns="http://www.w3.org/2000/svg">
<path d="M12.5 19.5V11.5C12.5 11.2348 12.3946 10.9804 12.2071 10.7929C12.0196 10.6054 11.7652 10.5 11.5 10.5H7.5C7.23478 10.5 6.98043 10.6054 6.79289 10.7929C6.60536 10.9804 6.5 11.2348 6.5 11.5V19.5" stroke="#F8F7F2" stroke-linecap="round" stroke-linejoin="round"/>
<path d="M0.5 8.50048C0.49993 8.20955 0.563334 7.9221 0.685788 7.6582C0.808242 7.39429 0.986798 7.16028 1.209 6.97248L8.209 0.972479C8.56999 0.667388 9.02736 0.5 9.5 0.5C9.97264 0.5 10.43 0.667388 10.791 0.972479L17.791 6.97248C18.0132 7.16028 18.1918 7.39429 18.3142 7.6582C18.4367 7.9221 18.5001 8.20955 18.5 8.50048V17.5005C18.5 18.0309 18.2893 18.5396 17.9142 18.9147C17.5391 19.2898 17.0304 19.5005 16.5 19.5005H2.5C1.96957 19.5005 1.46086 19.2898 1.08579 18.9147C0.710714 18.5396 0.5 18.0309 0.5 17.5005V8.50048Z" stroke="#F8F7F2" stroke-linecap="round" stroke-linejoin="round"/>
</svg>
