<svg width="30" height="30" viewBox="0 0 30 30" fill="none" xmlns="http://www.w3.org/2000/svg">
<path d="M16.25 8.75L10.875 3.375C10.3105 2.81319 9.54644 2.4978 8.75 2.4978C7.95356 2.4978 7.18953 2.81319 6.625 3.375L3.375 6.625C2.81319 7.18953 2.4978 7.95356 2.4978 8.75C2.4978 9.54644 2.81319 10.3105 3.375 10.875L8.75 16.25" stroke="#333333" stroke-width="2.5" stroke-linecap="round" stroke-linejoin="round"/>
<path d="M10 7.5L12.5 5" stroke="#333333" stroke-width="2.5" stroke-linecap="round" stroke-linejoin="round"/>
<path d="M22.5 20L25 17.5" stroke="#333333" stroke-width="2.5" stroke-linecap="round" stroke-linejoin="round"/>
<path d="M21.25 13.75L26.625 19.125C27.8 20.3 27.8 22.2 26.625 23.375L23.375 26.625C22.2 27.8 20.3 27.8 19.125 26.625L13.75 21.25" stroke="#333333" stroke-width="2.5" stroke-linecap="round" stroke-linejoin="round"/>
<path d="M26.4675 8.51499C27.1284 7.85427 27.4998 6.95807 27.4999 6.02355C27.5 5.08904 27.1289 4.19275 26.4682 3.53186C25.8074 2.87098 24.9112 2.49963 23.9767 2.49951C23.0422 2.49939 22.1459 2.87052 21.485 3.53124L4.80254 20.2175C4.51231 20.5069 4.29768 20.8632 4.17754 21.255L2.52629 26.695C2.49398 26.8031 2.49154 26.9179 2.51923 27.0273C2.54691 27.1367 2.60369 27.2365 2.68354 27.3162C2.76338 27.396 2.86332 27.4526 2.97274 27.4801C3.08216 27.5076 3.19699 27.505 3.30504 27.4725L8.74629 25.8225C9.13775 25.7034 9.49401 25.4901 9.78379 25.2012L26.4675 8.51499Z" stroke="#333333" stroke-width="2.5" stroke-linecap="round" stroke-linejoin="round"/>
<path d="M18.75 6.25L23.75 11.25" stroke="#333333" stroke-width="2.5" stroke-linecap="round" stroke-linejoin="round"/>
</svg>
