<svg width="35" height="35" viewBox="0 0 35 35" fill="none" xmlns="http://www.w3.org/2000/svg">
<path d="M6.5 32.5L12.9742 25.2719C13.9038 24.234 15.4257 23.9728 16.6483 24.6413L18.4078 25.6036C18.8285 25.8337 19.3534 25.7327 19.6587 25.3629L24.5 19.5C25.3839 18.3294 26.7872 17.8236 28.1004 18.3169C28.3744 18.4198 28.615 18.5918 28.8437 18.7745L32.8469 21.9715M1.5 12.124C1.5 3.37514 3.37514 1.5 12.124 1.5H22.876C31.6249 1.5 33.5 3.37514 33.5 12.124V22.876C33.5 31.6249 31.6249 33.5 22.876 33.5H12.124C3.37514 33.5 1.5 31.6249 1.5 22.876V12.124ZM14 12.124C14 13.3864 12.9767 14.4097 11.7143 14.4097C10.4519 14.4097 9.42857 13.3864 9.42857 12.124C9.42857 10.8616 10.4519 9.83829 11.7143 9.83829C12.9767 9.83829 14 10.8616 14 12.124Z" stroke="#A8A8A8" stroke-width="3"/>
</svg>
