<svg width="113" height="31" viewBox="0 0 113 31" fill="none" xmlns="http://www.w3.org/2000/svg">
<circle cx="14.4469" cy="5.6173" r="4.58652" transform="rotate(-15 14.4469 5.6173)" fill="#F8F7F2"/>
<path d="M13.9141 12.1559C12.038 12.8642 11.0906 14.9594 11.7987 16.8355C12.1266 17.7043 12.7525 18.3732 13.5159 18.7711C13.9638 19.0045 14.4513 19.1542 14.9115 19.3622L28.5883 25.5441C30.4157 26.3698 32.5671 25.5575 33.393 23.7302C34.2189 21.9027 33.4066 19.7513 31.5792 18.9254L31.5106 18.8944C29.0108 17.7648 29.1246 14.1767 31.691 13.2079C33.5671 12.4995 34.5135 10.4039 33.8052 8.52772C33.0968 6.65183 31.002 5.70515 29.126 6.41323L13.9141 12.1559Z" fill="#F8F7F2"/>
<path d="M19.009 12.2271C20.6675 12.5005 21.7899 14.0667 21.5166 15.7253C21.3964 16.4545 21.0254 17.0782 20.5069 17.5261C20.1424 17.8411 19.7126 18.0717 19.3211 18.3524L9.15145 25.6447C7.7854 26.6243 5.88455 26.3111 4.905 24.945C3.92553 23.579 4.23869 21.6781 5.6047 20.6986L5.65628 20.6616C7.52504 19.3216 6.84076 16.391 4.5718 16.0172C2.9133 15.7439 1.78995 14.1783 2.06309 12.5198C2.33638 10.8612 3.90284 9.73796 5.56143 10.0113L19.009 12.2271Z" fill="#F8F7F2"/>
<path d="M19.0091 12.2472C20.6675 12.5206 21.7902 14.0867 21.5169 15.7452C21.3966 16.4744 21.0255 17.0981 20.5071 17.546C20.1427 17.8609 19.713 18.0915 19.3216 18.3722L16.7522 20.214L14.9114 19.382C14.4512 19.174 13.9637 19.0245 13.5159 18.7911C12.7526 18.3933 12.1271 17.7242 11.7991 16.8556C11.0911 14.9796 12.0375 12.8843 13.9134 12.1759L15.3294 11.6407L19.0091 12.2472Z" fill="#F8F7F2"/>
<path d="M60.9743 6.96405C60.9743 12.3941 56.5101 18.9217 49.3789 18.9217C43.4363 18.9217 43.5232 12.3941 49.7558 12.3941C57.7856 12.3941 61.9019 18.0841 61.9019 22.9364C61.9019 24.0918 57.4667 24.1495 57.4667 22.9942C57.4667 17.2753 53.0315 14.9358 48.8861 14.9358C47.1178 14.9358 46.8859 16.3511 48.5672 16.3511C52.7996 16.3511 57.1188 11.2388 57.1188 6.96405C57.1188 6.09756 60.9743 5.98203 60.9743 6.96405ZM47.9585 6.8774C47.9585 5.92426 52.5676 6.01091 52.5676 6.96405C52.5676 11.2676 52.5676 18.1129 52.5676 22.7631C52.5676 24.2939 47.9585 24.2651 47.9585 22.7343C47.9585 17.853 47.9585 9.85237 47.9585 6.8774Z" fill="#F8F7F2"/>
<path d="M63.0911 11.2965C63.0042 9.76572 67.2365 9.9679 67.2365 11.181C67.2365 14.7047 67.2075 19.4416 67.2075 22.3877C67.2075 23.6007 63.5839 23.8318 63.526 22.6187C63.2651 15.7156 63.2651 14.7336 63.0911 11.2965ZM63.0622 7.13735C63.0622 5.83761 63.9028 5 65.2073 5C66.4828 5 67.3235 5.83761 67.3235 7.13735C67.3235 8.40821 66.4828 9.24582 65.2073 9.24582C63.9028 9.24582 63.0622 8.40821 63.0622 7.13735Z" fill="#F8F7F2"/>
<path d="M77.7165 23.052C80.3255 10.6611 71.3101 10.4878 73.1073 22.7343C73.2813 23.8607 69.1359 24.0629 68.904 22.9076C65.3094 5.31771 86.7319 4.56675 81.8329 23.1675C81.514 24.3517 77.4556 24.2362 77.7165 23.052Z" fill="#F8F7F2"/>
<path d="M96.2501 6.81964C97.7285 11.4121 98.8591 23.9762 91.0902 23.9762C81.0601 23.9762 80.6253 5.66431 94.2499 10.0257C95.6413 10.4589 95.8443 15.0802 94.5688 14.4159C86.0751 9.9679 87.3506 20.337 90.5684 20.337C93.4962 20.337 93.3513 11.0366 92.5976 6.96405C92.3656 5.77985 95.8732 5.66431 96.2501 6.81964Z" fill="#F8F7F2"/>
<path d="M98.4768 16.611C98.4768 12.2786 101.376 9.39024 105.753 9.39024C110.101 9.39024 113 12.2786 113 16.611C113 20.9435 110.101 23.8318 105.753 23.8318C101.376 23.8318 98.4768 20.9435 98.4768 16.611ZM102.477 16.611C102.477 18.5462 103.782 19.8748 105.753 19.8748C107.695 19.8748 109 18.5462 109 16.611C109 14.6759 107.695 13.3472 105.753 13.3472C103.782 13.3472 102.477 14.6759 102.477 16.611Z" fill="#F8F7F2"/>
</svg>
