<svg width="19" height="21" viewBox="0 0 19 21" fill="none" xmlns="http://www.w3.org/2000/svg">
<path d="M7.76758 19.5C7.94312 19.804 8.19559 20.0565 8.49962 20.232C8.80365 20.4075 9.14852 20.4999 9.49958 20.4999C9.85063 20.4999 10.1955 20.4075 10.4995 20.232C10.8036 20.0565 11.056 19.804 11.2316 19.5" stroke="#F8F7F2" stroke-linecap="round" stroke-linejoin="round"/>
<path d="M0.761269 13.826C0.630634 13.9692 0.544423 14.1472 0.513125 14.3385C0.481826 14.5298 0.506789 14.726 0.584976 14.9034C0.663163 15.0807 0.791205 15.2316 0.953525 15.3375C1.11585 15.4434 1.30545 15.4999 1.49927 15.5H17.4993C17.6931 15.5001 17.8827 15.4438 18.0451 15.3381C18.2076 15.2324 18.3358 15.0817 18.4142 14.9045C18.4926 14.7273 18.5178 14.5311 18.4867 14.3398C18.4557 14.1485 18.3697 13.9703 18.2393 13.827C16.9093 12.456 15.4993 10.999 15.4993 6.5C15.4993 4.9087 14.8671 3.38258 13.7419 2.25736C12.6167 1.13214 11.0906 0.5 9.49927 0.5C7.90797 0.5 6.38185 1.13214 5.25663 2.25736C4.13141 3.38258 3.49927 4.9087 3.49927 6.5C3.49927 10.999 2.08827 12.456 0.761269 13.826Z" stroke="#F8F7F2" stroke-linecap="round" stroke-linejoin="round"/>
</svg>
