<svg width="41" height="41" viewBox="0 0 41 41" fill="none" xmlns="http://www.w3.org/2000/svg">
<path d="M5.125 11.9583V8.54167C5.125 7.63551 5.48497 6.76647 6.12572 6.12572C6.76647 5.48497 7.63551 5.125 8.54167 5.125H11.9583" stroke="#333333" stroke-width="3" stroke-linecap="round" stroke-linejoin="round"/>
<path d="M29.0415 5.125H32.4582C33.3643 5.125 34.2334 5.48497 34.8741 6.12572C35.5149 6.76647 35.8748 7.63551 35.8748 8.54167V11.9583" stroke="#333333" stroke-width="3" stroke-linecap="round" stroke-linejoin="round"/>
<path d="M35.8748 29.042V32.4587C35.8748 33.3648 35.5149 34.2339 34.8741 34.8746C34.2334 35.5154 33.3643 35.8753 32.4582 35.8753H29.0415" stroke="#333333" stroke-width="3" stroke-linecap="round" stroke-linejoin="round"/>
<path d="M11.9583 35.8753H8.54167C7.63551 35.8753 6.76647 35.5154 6.12572 34.8746C5.48497 34.2339 5.125 33.3648 5.125 32.4587V29.042" stroke="#333333" stroke-width="3" stroke-linecap="round" stroke-linejoin="round"/>
<path d="M11.9585 20.5H29.0418" stroke="#333333" stroke-width="3" stroke-linecap="round" stroke-linejoin="round"/>
</svg>
