<svg width="18" height="18" viewBox="0 0 18 18" fill="none" xmlns="http://www.w3.org/2000/svg">
<path d="M9 1.49902V5.99902L10.5 4.49902" stroke="#333333" stroke-linecap="round" stroke-linejoin="round"/>
<path d="M9.00098 6L7.50098 4.5" stroke="#333333" stroke-linecap="round" stroke-linejoin="round"/>
<path d="M5.25 9C2.25 9 2.25 10.3425 2.25 12V12.75C2.25 14.82 2.25 16.5 6 16.5H12C15 16.5 15.75 14.82 15.75 12.75V12C15.75 10.3425 15.75 9 12.75 9C12 9 11.79 9.1575 11.4 9.45L10.635 10.26C9.75 11.205 8.25 11.205 7.3575 10.26L6.6 9.45C6.21 9.1575 6 9 5.25 9Z" stroke="#333333" stroke-miterlimit="10" stroke-linecap="round" stroke-linejoin="round"/>
<path d="M3.74902 8.9993V5.9993C3.74902 4.4918 3.74902 3.2468 5.99902 3.0293" stroke="#333333" stroke-miterlimit="10" stroke-linecap="round" stroke-linejoin="round"/>
<path d="M14.251 8.9993V5.9993C14.251 4.4918 14.251 3.2468 12.001 3.0293" stroke="#333333" stroke-miterlimit="10" stroke-linecap="round" stroke-linejoin="round"/>
</svg>
