<svg width="21" height="21" viewBox="0 0 21 21" fill="none" xmlns="http://www.w3.org/2000/svg">
<path d="M10.502 10.4995C12.9182 10.4995 14.877 8.54076 14.877 6.12451C14.877 3.70827 12.9182 1.74951 10.502 1.74951C8.08571 1.74951 6.12695 3.70827 6.12695 6.12451C6.12695 8.54076 8.08571 10.4995 10.502 10.4995Z" stroke="#292D32" stroke-width="1.5" stroke-linecap="round" stroke-linejoin="round"/>
<path d="M2.98242 19.25C2.98242 15.8638 6.3512 13.125 10.4987 13.125" stroke="#292D32" stroke-width="1.5" stroke-linecap="round" stroke-linejoin="round"/>
<path d="M15.925 18.725C17.4714 18.725 18.725 17.4714 18.725 15.925C18.725 14.3786 17.4714 13.125 15.925 13.125C14.3786 13.125 13.125 14.3786 13.125 15.925C13.125 17.4714 14.3786 18.725 15.925 18.725Z" stroke="#292D32" stroke-width="1.5" stroke-linecap="round" stroke-linejoin="round"/>
<path d="M19.25 19.25L18.375 18.375" stroke="#292D32" stroke-width="1.5" stroke-linecap="round" stroke-linejoin="round"/>
</svg>
